<svg
   xmlns:dc="http://purl.org/dc/elements/1.1/"
   xmlns:cc="http://creativecommons.org/ns#"
   xmlns:rdf="http://www.w3.org/1999/02/22-rdf-syntax-ns#"
   xmlns:svg="http://www.w3.org/2000/svg"
   xmlns="http://www.w3.org/2000/svg"
   id="svg25"
   version="1.1"
   viewBox="0 0 380 280">
  <metadata
     id="metadata31">
    <rdf:RDF>
      <cc:Work
         rdf:about="">
        <dc:format>image/svg+xml</dc:format>
        <dc:type
           rdf:resource="http://purl.org/dc/dcmitype/StillImage" />
      </cc:Work>
    </rdf:RDF>
  </metadata>
  <defs
     id="defs29" />
  <svg
     height="100%"
     width="100%"
     id="svg2"
     version="1.1"
     viewBox="0 0 380 280" />
  <g
     transform="translate(0,125)"
     id="container">
    <g
       id="text4"
       style="font-size:40px;font-family:Dream-ZhunYuanGBT;fill:#0b6347;fill-opacity:1"
       aria-label="N">
      <path
         id="path33"
         style="font-size:40px;font-family:Dream-ZhunYuanGBT;fill:#0b6347;fill-opacity:1"
         d="m 156.8375,28.175 q 0.2,1.64 1.72,1.6 1.56,0 1.8,-1.76 V 6.895 h 0.16 l 14.96,21.44 q 1.32,1.68 2.56,1.36 1.24,-0.28 1.36,-1.84 v -25.6 q -0.24,-1.92 -1.8,-1.92 -1.52,0 -1.72,1.92 v 21.28 l -15.12,-21.76 q -1.28,-1.6 -2.56,-1.36 -1.28,0.24 -1.36,2.16 v 25.6 0 0 z" />
    </g>
    <g
       id="text6"
       style="font-size:40px;font-family:Dream-ZhunYuanGBT;fill:#0b6347;fill-opacity:1"
       aria-label="I">
      <path
         id="path36"
         style="font-size:40px;font-family:Dream-ZhunYuanGBT;fill:#0b6347;fill-opacity:1"
         d="m 191.6325,2.255 q -0.24,-1.84 -1.84,-1.8 -1.56,0 -1.76,1.88 v 25.68 q 0.2,1.96 1.76,1.92 1.6,-0.04 1.84,-2 v -25.68 0 0 z" />
    </g>
    <g
       id="text8"
       style="font-size:40px;font-family:Dream-ZhunYuanGBT;fill:#0b6347;fill-opacity:1"
       aria-label="N">
      <path
         id="path39"
         style="font-size:40px;font-family:Dream-ZhunYuanGBT;fill:#0b6347;fill-opacity:1"
         d="m 201.0875,28.175 q 0.2,1.64 1.72,1.6 1.56,0 1.8,-1.76 V 6.895 h 0.16 l 14.96,21.44 q 1.32,1.68 2.56,1.36 1.24,-0.28 1.36,-1.84 v -25.6 q -0.24,-1.92 -1.8,-1.92 -1.52,0 -1.72,1.92 v 21.28 l -15.12,-21.76 q -1.28,-1.6 -2.56,-1.36 -1.28,0.24 -1.36,2.16 v 25.6 0 0 z" />
    </g>
    <svg
       id="svg22"
       version="1.1"
       height="46.970001"
       width="173"
       y="0.015"
       x="104">
      <svg
         height="100%"
         width="100%"
         id="svg20"
         version="1.1"
         viewBox="0 0 173 46.97">
        <path
           style="fill:#0b6347;fill-rule:evenodd"
           id="path10"
           d="M 14,32.85 Q 24.65,41 49.87,43 c 13,1 31.39,0.37 48.54,-1.88 21.63,-2.85 41.45,-7.67 47.91,-8.31 11.57,-1.15 15.65,2.84 16.22,5.8 0.38,2 -0.43,3.6 -2.44,4.88 q 2.31,-2.91 1.1,-4.88 c -0.67,-1.06 -2.54,-4.33 -13.64,-3.24 -6,0.59 -26.31,6 -47.7,9.07 -18.21,2.61 -37.07,3.13 -50,1.74 Q 21.79,43.18 14,32.85 Z" />
        <path
           id="circle12"
           d="m 156,42 a 2,2 0 0 1 -2,2 2,2 0 0 1 -2,-2 2,2 0 0 1 2,-2 2,2 0 0 1 2,2 z"
           style="fill:#0b6347" />
        <path
           id="circle14"
           d="M 30,2 A 2,2 0 0 1 28,4 2,2 0 0 1 26,2 2,2 0 0 1 28,0 2,2 0 0 1 30,2 Z"
           style="fill:#0b6347" />
        <path
           id="circle16"
           d="M 7,15.5 A 3.5,3.5 0 0 1 3.5,19 3.5,3.5 0 0 1 0,15.5 3.5,3.5 0 0 1 3.5,12 3.5,3.5 0 0 1 7,15.5 Z"
           style="fill:#0b6347" />
        <path
           id="circle18"
           d="m 173,30 a 3,3 0 0 1 -3,3 3,3 0 0 1 -3,-3 3,3 0 0 1 3,-3 3,3 0 0 1 3,3 z"
           style="fill:#0b6347" />
      </svg>
    </svg>
  </g>
</svg>
